<mxfile host="app.diagrams.net" modified="2024-01-29T20:24:27.723Z" agent="Mozilla/5.0 (Windows NT 10.0; Win64; x64) AppleWebKit/537.36 (KHTML, like Gecko) Chrome/120.0.0.0 Safari/537.36" etag="qFufxNO7eCLqEK-j4Jn7" version="23.0.2" type="github">
  <diagram name="PÃ¡gina-1" id="p9qkXHeLWdpkjmJqcO1z">
    <mxGraphModel dx="2596" dy="381" grid="0" gridSize="10" guides="1" tooltips="1" connect="1" arrows="1" fold="1" page="0" pageScale="1" pageWidth="827" pageHeight="1169" math="0" shadow="0">
      <root>
        <mxCell id="0" />
        <mxCell id="1" parent="0" />
        <mxCell id="ETe1gMkkXj5bVFBRiPxY-24" value="&lt;font style=&quot;font-size: 18px;&quot;&gt;Cliente&lt;/font&gt;" style="image;aspect=fixed;perimeter=ellipsePerimeter;html=1;align=center;shadow=0;dashed=0;spacingTop=0;image=img/lib/active_directory/user.svg;labelBackgroundColor=default;verticalAlign=middle;fontFamily=Helvetica;fontSize=11;fontColor=default;fillColor=none;gradientColor=none;spacing=0;" vertex="1" parent="1">
          <mxGeometry x="-225" y="1333" width="39" height="105.41" as="geometry" />
        </mxCell>
        <mxCell id="ETe1gMkkXj5bVFBRiPxY-26" value="" style="endArrow=classic;html=1;rounded=0;strokeColor=default;strokeWidth=2;" edge="1" parent="1" target="ETe1gMkkXj5bVFBRiPxY-30">
          <mxGeometry relative="1" as="geometry">
            <mxPoint x="-183" y="1397" as="sourcePoint" />
            <mxPoint x="-6" y="1394" as="targetPoint" />
          </mxGeometry>
        </mxCell>
        <mxCell id="ETe1gMkkXj5bVFBRiPxY-27" value="Categoria / Produto" style="edgeLabel;resizable=0;html=1;align=center;verticalAlign=middle;fontSize=18;" connectable="0" vertex="1" parent="ETe1gMkkXj5bVFBRiPxY-26">
          <mxGeometry relative="1" as="geometry" />
        </mxCell>
        <mxCell id="ETe1gMkkXj5bVFBRiPxY-28" value="AWS Account" style="points=[[0,0],[0.25,0],[0.5,0],[0.75,0],[1,0],[1,0.25],[1,0.5],[1,0.75],[1,1],[0.75,1],[0.5,1],[0.25,1],[0,1],[0,0.75],[0,0.5],[0,0.25]];outlineConnect=0;gradientColor=none;html=1;whiteSpace=wrap;fontSize=18;fontStyle=0;container=1;pointerEvents=0;collapsible=0;recursiveResize=0;shape=mxgraph.aws4.group;grIcon=mxgraph.aws4.group_account;strokeColor=#CD2264;fillColor=none;verticalAlign=top;align=left;spacingLeft=30;fontColor=#CD2264;dashed=0;labelBackgroundColor=default;fontFamily=Helvetica;" vertex="1" parent="1">
          <mxGeometry x="7" y="1199" width="2036" height="1006" as="geometry" />
        </mxCell>
        <mxCell id="ETe1gMkkXj5bVFBRiPxY-66" value="Region" style="points=[[0,0],[0.25,0],[0.5,0],[0.75,0],[1,0],[1,0.25],[1,0.5],[1,0.75],[1,1],[0.75,1],[0.5,1],[0.25,1],[0,1],[0,0.75],[0,0.5],[0,0.25]];outlineConnect=0;gradientColor=none;html=1;whiteSpace=wrap;fontSize=18;fontStyle=0;container=1;pointerEvents=0;collapsible=0;recursiveResize=0;shape=mxgraph.aws4.group;grIcon=mxgraph.aws4.group_region;strokeColor=#00A4A6;fillColor=none;verticalAlign=top;align=left;spacingLeft=30;fontColor=#147EBA;dashed=1;labelBackgroundColor=default;fontFamily=Helvetica;" vertex="1" parent="ETe1gMkkXj5bVFBRiPxY-28">
          <mxGeometry x="290" y="22" width="1733" height="972" as="geometry" />
        </mxCell>
        <mxCell id="ETe1gMkkXj5bVFBRiPxY-67" value="&lt;font style=&quot;font-size: 18px;&quot;&gt;VPC&lt;/font&gt;" style="sketch=0;outlineConnect=0;gradientColor=none;html=1;whiteSpace=wrap;fontSize=12;fontStyle=0;shape=mxgraph.aws4.group;grIcon=mxgraph.aws4.group_vpc;strokeColor=#879196;fillColor=none;verticalAlign=top;align=left;spacingLeft=30;fontColor=#879196;dashed=0;labelBackgroundColor=default;fontFamily=Helvetica;" vertex="1" parent="ETe1gMkkXj5bVFBRiPxY-66">
          <mxGeometry x="206" y="62" width="850" height="756" as="geometry" />
        </mxCell>
        <mxCell id="ETe1gMkkXj5bVFBRiPxY-41" value="&lt;font style=&quot;font-size: 17px;&quot;&gt;Public subnet&lt;/font&gt;" style="points=[[0,0],[0.25,0],[0.5,0],[0.75,0],[1,0],[1,0.25],[1,0.5],[1,0.75],[1,1],[0.75,1],[0.5,1],[0.25,1],[0,1],[0,0.75],[0,0.5],[0,0.25]];outlineConnect=0;gradientColor=none;html=1;whiteSpace=wrap;fontSize=12;fontStyle=0;container=1;pointerEvents=0;collapsible=0;recursiveResize=0;shape=mxgraph.aws4.group;grIcon=mxgraph.aws4.group_security_group;grStroke=0;strokeColor=#7AA116;fillColor=#F2F6E8;verticalAlign=top;align=left;spacingLeft=30;fontColor=#248814;dashed=0;labelBackgroundColor=default;fontFamily=Helvetica;" vertex="1" parent="ETe1gMkkXj5bVFBRiPxY-66">
          <mxGeometry x="219" y="540" width="295" height="237" as="geometry" />
        </mxCell>
        <mxCell id="ETe1gMkkXj5bVFBRiPxY-43" value="NAT GATEWAY" style="sketch=0;outlineConnect=0;fontColor=#232F3E;gradientColor=none;fillColor=#8C4FFF;strokeColor=none;dashed=0;verticalLabelPosition=bottom;verticalAlign=top;align=center;html=1;fontSize=18;fontStyle=0;aspect=fixed;pointerEvents=1;shape=mxgraph.aws4.nat_gateway;labelBackgroundColor=default;fontFamily=Helvetica;" vertex="1" parent="ETe1gMkkXj5bVFBRiPxY-41">
          <mxGeometry x="88" y="68.5" width="100" height="100" as="geometry" />
        </mxCell>
        <mxCell id="ETe1gMkkXj5bVFBRiPxY-40" value="&lt;font style=&quot;font-size: 17px;&quot;&gt;Public subnet&lt;/font&gt;" style="points=[[0,0],[0.25,0],[0.5,0],[0.75,0],[1,0],[1,0.25],[1,0.5],[1,0.75],[1,1],[0.75,1],[0.5,1],[0.25,1],[0,1],[0,0.75],[0,0.5],[0,0.25]];outlineConnect=0;gradientColor=none;html=1;whiteSpace=wrap;fontSize=12;fontStyle=0;container=1;pointerEvents=0;collapsible=0;recursiveResize=0;shape=mxgraph.aws4.group;grIcon=mxgraph.aws4.group_security_group;grStroke=0;strokeColor=#7AA116;fillColor=#F2F6E8;verticalAlign=top;align=left;spacingLeft=30;fontColor=#248814;dashed=0;labelBackgroundColor=default;fontFamily=Helvetica;" vertex="1" parent="ETe1gMkkXj5bVFBRiPxY-66">
          <mxGeometry x="220.5" y="129" width="292" height="210" as="geometry" />
        </mxCell>
        <mxCell id="ETe1gMkkXj5bVFBRiPxY-42" value="NAT GATEWAY" style="sketch=0;outlineConnect=0;fontColor=#232F3E;gradientColor=none;fillColor=#8C4FFF;strokeColor=none;dashed=0;verticalLabelPosition=bottom;verticalAlign=top;align=center;html=1;fontSize=18;fontStyle=0;aspect=fixed;pointerEvents=1;shape=mxgraph.aws4.nat_gateway;labelBackgroundColor=default;fontFamily=Helvetica;" vertex="1" parent="ETe1gMkkXj5bVFBRiPxY-40">
          <mxGeometry x="92" y="55" width="100" height="100" as="geometry" />
        </mxCell>
        <mxCell id="ETe1gMkkXj5bVFBRiPxY-52" value="Load Balancer" style="sketch=0;outlineConnect=0;fontColor=#232F3E;gradientColor=none;fillColor=#8C4FFF;strokeColor=none;dashed=0;verticalLabelPosition=bottom;verticalAlign=top;align=center;html=1;fontSize=18;fontStyle=0;aspect=fixed;pointerEvents=1;shape=mxgraph.aws4.application_load_balancer;labelBackgroundColor=default;fontFamily=Helvetica;" vertex="1" parent="ETe1gMkkXj5bVFBRiPxY-66">
          <mxGeometry x="296" y="362" width="122" height="122" as="geometry" />
        </mxCell>
        <mxCell id="ETe1gMkkXj5bVFBRiPxY-68" value="AZ-A" style="fillColor=none;strokeColor=#147EBA;dashed=1;verticalAlign=top;fontStyle=0;fontColor=#147EBA;whiteSpace=wrap;html=1;labelBackgroundColor=default;align=center;fontFamily=Helvetica;fontSize=18;" vertex="1" parent="ETe1gMkkXj5bVFBRiPxY-66">
          <mxGeometry x="215" y="95" width="824" height="265" as="geometry" />
        </mxCell>
        <mxCell id="ETe1gMkkXj5bVFBRiPxY-69" value="AZ-B" style="fillColor=none;strokeColor=#147EBA;dashed=1;verticalAlign=top;fontStyle=0;fontColor=#147EBA;whiteSpace=wrap;html=1;labelBackgroundColor=default;align=center;fontFamily=Helvetica;fontSize=18;" vertex="1" parent="ETe1gMkkXj5bVFBRiPxY-66">
          <mxGeometry x="215" y="507" width="824" height="280" as="geometry" />
        </mxCell>
        <mxCell id="ETe1gMkkXj5bVFBRiPxY-51" value="CloudWatch" style="sketch=0;points=[[0,0,0],[0.25,0,0],[0.5,0,0],[0.75,0,0],[1,0,0],[0,1,0],[0.25,1,0],[0.5,1,0],[0.75,1,0],[1,1,0],[0,0.25,0],[0,0.5,0],[0,0.75,0],[1,0.25,0],[1,0.5,0],[1,0.75,0]];points=[[0,0,0],[0.25,0,0],[0.5,0,0],[0.75,0,0],[1,0,0],[0,1,0],[0.25,1,0],[0.5,1,0],[0.75,1,0],[1,1,0],[0,0.25,0],[0,0.5,0],[0,0.75,0],[1,0.25,0],[1,0.5,0],[1,0.75,0]];outlineConnect=0;fontColor=#232F3E;fillColor=#E7157B;strokeColor=#ffffff;dashed=0;verticalLabelPosition=bottom;verticalAlign=top;align=center;html=1;fontSize=18;fontStyle=0;aspect=fixed;shape=mxgraph.aws4.resourceIcon;resIcon=mxgraph.aws4.cloudwatch_2;labelBackgroundColor=default;fontFamily=Helvetica;" vertex="1" parent="ETe1gMkkXj5bVFBRiPxY-66">
          <mxGeometry x="1604" y="13" width="112" height="112" as="geometry" />
        </mxCell>
        <mxCell id="ETe1gMkkXj5bVFBRiPxY-94" style="edgeStyle=orthogonalEdgeStyle;rounded=0;orthogonalLoop=1;jettySize=auto;html=1;fontFamily=Helvetica;fontSize=11;fontColor=default;strokeWidth=2;" edge="1" parent="ETe1gMkkXj5bVFBRiPxY-66" source="ETe1gMkkXj5bVFBRiPxY-83" target="ETe1gMkkXj5bVFBRiPxY-92">
          <mxGeometry relative="1" as="geometry" />
        </mxCell>
        <mxCell id="ETe1gMkkXj5bVFBRiPxY-95" value="&lt;font style=&quot;font-size: 18px;&quot;&gt;&lt;br&gt;&lt;/font&gt;" style="edgeLabel;html=1;align=center;verticalAlign=middle;resizable=0;points=[];fontSize=11;fontFamily=Helvetica;fontColor=default;" vertex="1" connectable="0" parent="ETe1gMkkXj5bVFBRiPxY-94">
          <mxGeometry x="-0.1318" y="1" relative="1" as="geometry">
            <mxPoint as="offset" />
          </mxGeometry>
        </mxCell>
        <mxCell id="ETe1gMkkXj5bVFBRiPxY-83" value="SNS&lt;br style=&quot;font-size: 18px;&quot;&gt;catalog-emit" style="sketch=0;points=[[0,0,0],[0.25,0,0],[0.5,0,0],[0.75,0,0],[1,0,0],[0,1,0],[0.25,1,0],[0.5,1,0],[0.75,1,0],[1,1,0],[0,0.25,0],[0,0.5,0],[0,0.75,0],[1,0.25,0],[1,0.5,0],[1,0.75,0]];outlineConnect=0;fontColor=#232F3E;fillColor=#E7157B;strokeColor=#ffffff;dashed=0;verticalLabelPosition=bottom;verticalAlign=top;align=center;html=1;fontSize=18;fontStyle=0;aspect=fixed;shape=mxgraph.aws4.resourceIcon;resIcon=mxgraph.aws4.sns;labelBackgroundColor=default;fontFamily=Helvetica;labelPosition=center;" vertex="1" parent="ETe1gMkkXj5bVFBRiPxY-66">
          <mxGeometry x="1359" y="387.5" width="115" height="115" as="geometry" />
        </mxCell>
        <mxCell id="ETe1gMkkXj5bVFBRiPxY-98" value="&#xa;&lt;span style=&quot;color: rgb(0, 0, 0); font-family: Helvetica; font-size: 18px; font-style: normal; font-variant-ligatures: normal; font-variant-caps: normal; font-weight: 400; letter-spacing: normal; orphans: 2; text-align: center; text-indent: 0px; text-transform: none; widows: 2; word-spacing: 0px; -webkit-text-stroke-width: 0px; background-color: rgb(255, 255, 255); text-decoration-thickness: initial; text-decoration-style: initial; text-decoration-color: initial; float: none; display: inline !important;&quot;&gt;Trigga&lt;/span&gt;&lt;br style=&quot;border-color: var(--border-color); color: rgb(0, 0, 0); font-family: Helvetica; font-size: 18px; font-style: normal; font-variant-ligatures: normal; font-variant-caps: normal; font-weight: 400; letter-spacing: normal; orphans: 2; text-align: center; text-indent: 0px; text-transform: none; widows: 2; word-spacing: 0px; -webkit-text-stroke-width: 0px; background-color: rgb(255, 255, 255); text-decoration-thickness: initial; text-decoration-style: initial; text-decoration-color: initial;&quot;&gt;&lt;span style=&quot;color: rgb(0, 0, 0); font-family: Helvetica; font-size: 18px; font-style: normal; font-variant-ligatures: normal; font-variant-caps: normal; font-weight: 400; letter-spacing: normal; orphans: 2; text-align: center; text-indent: 0px; text-transform: none; widows: 2; word-spacing: 0px; -webkit-text-stroke-width: 0px; background-color: rgb(255, 255, 255); text-decoration-thickness: initial; text-decoration-style: initial; text-decoration-color: initial; float: none; display: inline !important;&quot;&gt;a&lt;/span&gt;&lt;br style=&quot;border-color: var(--border-color); color: rgb(0, 0, 0); font-family: Helvetica; font-size: 18px; font-style: normal; font-variant-ligatures: normal; font-variant-caps: normal; font-weight: 400; letter-spacing: normal; orphans: 2; text-align: center; text-indent: 0px; text-transform: none; widows: 2; word-spacing: 0px; -webkit-text-stroke-width: 0px; background-color: rgb(255, 255, 255); text-decoration-thickness: initial; text-decoration-style: initial; text-decoration-color: initial;&quot;&gt;&lt;span style=&quot;color: rgb(0, 0, 0); font-family: Helvetica; font-size: 18px; font-style: normal; font-variant-ligatures: normal; font-variant-caps: normal; font-weight: 400; letter-spacing: normal; orphans: 2; text-align: center; text-indent: 0px; text-transform: none; widows: 2; word-spacing: 0px; -webkit-text-stroke-width: 0px; background-color: rgb(255, 255, 255); text-decoration-thickness: initial; text-decoration-style: initial; text-decoration-color: initial; float: none; display: inline !important;&quot;&gt;ExecuÃ§Ã£o&lt;/span&gt;&#xa;&#xa;" style="edgeStyle=orthogonalEdgeStyle;rounded=0;orthogonalLoop=1;jettySize=auto;html=1;fontFamily=Helvetica;fontSize=12;fontColor=default;strokeWidth=2;" edge="1" parent="ETe1gMkkXj5bVFBRiPxY-66" source="ETe1gMkkXj5bVFBRiPxY-92" target="ETe1gMkkXj5bVFBRiPxY-97">
          <mxGeometry relative="1" as="geometry" />
        </mxCell>
        <mxCell id="ETe1gMkkXj5bVFBRiPxY-92" value="SQS" style="sketch=0;points=[[0,0,0],[0.25,0,0],[0.5,0,0],[0.75,0,0],[1,0,0],[0,1,0],[0.25,1,0],[0.5,1,0],[0.75,1,0],[1,1,0],[0,0.25,0],[0,0.5,0],[0,0.75,0],[1,0.25,0],[1,0.5,0],[1,0.75,0]];outlineConnect=0;fontColor=#232F3E;fillColor=#E7157B;strokeColor=#ffffff;dashed=0;verticalLabelPosition=top;verticalAlign=bottom;align=center;html=1;fontSize=18;fontStyle=0;aspect=fixed;shape=mxgraph.aws4.resourceIcon;resIcon=mxgraph.aws4.sqs;labelBackgroundColor=default;fontFamily=Helvetica;labelPosition=center;" vertex="1" parent="ETe1gMkkXj5bVFBRiPxY-66">
          <mxGeometry x="1601" y="386" width="118" height="118" as="geometry" />
        </mxCell>
        <mxCell id="ETe1gMkkXj5bVFBRiPxY-100" value="Salva JSON" style="edgeStyle=orthogonalEdgeStyle;rounded=0;orthogonalLoop=1;jettySize=auto;html=1;fontFamily=Helvetica;fontSize=18;fontColor=default;strokeWidth=2;" edge="1" parent="ETe1gMkkXj5bVFBRiPxY-66" source="ETe1gMkkXj5bVFBRiPxY-97" target="ETe1gMkkXj5bVFBRiPxY-38">
          <mxGeometry relative="1" as="geometry" />
        </mxCell>
        <mxCell id="ETe1gMkkXj5bVFBRiPxY-97" value="Lambda Function" style="sketch=0;points=[[0,0,0],[0.25,0,0],[0.5,0,0],[0.75,0,0],[1,0,0],[0,1,0],[0.25,1,0],[0.5,1,0],[0.75,1,0],[1,1,0],[0,0.25,0],[0,0.5,0],[0,0.75,0],[1,0.25,0],[1,0.5,0],[1,0.75,0]];outlineConnect=0;fontColor=#232F3E;fillColor=#ED7100;strokeColor=#ffffff;dashed=0;verticalLabelPosition=bottom;verticalAlign=top;align=center;html=1;fontSize=18;fontStyle=0;aspect=fixed;shape=mxgraph.aws4.resourceIcon;resIcon=mxgraph.aws4.lambda;labelBackgroundColor=default;fontFamily=Helvetica;" vertex="1" parent="ETe1gMkkXj5bVFBRiPxY-66">
          <mxGeometry x="1605" y="828.5" width="110" height="110" as="geometry" />
        </mxCell>
        <mxCell id="ETe1gMkkXj5bVFBRiPxY-38" value="S3" style="sketch=0;points=[[0,0,0],[0.25,0,0],[0.5,0,0],[0.75,0,0],[1,0,0],[0,1,0],[0.25,1,0],[0.5,1,0],[0.75,1,0],[1,1,0],[0,0.25,0],[0,0.5,0],[0,0.75,0],[1,0.25,0],[1,0.5,0],[1,0.75,0]];outlineConnect=0;fontColor=#232F3E;fillColor=#7AA116;strokeColor=#ffffff;dashed=0;verticalLabelPosition=bottom;verticalAlign=top;align=center;html=1;fontSize=18;fontStyle=0;aspect=fixed;shape=mxgraph.aws4.resourceIcon;resIcon=mxgraph.aws4.s3;labelBackgroundColor=default;fontFamily=Helvetica;" vertex="1" parent="ETe1gMkkXj5bVFBRiPxY-66">
          <mxGeometry x="591" y="826" width="115" height="115" as="geometry" />
        </mxCell>
        <mxCell id="ETe1gMkkXj5bVFBRiPxY-35" style="edgeStyle=orthogonalEdgeStyle;rounded=0;orthogonalLoop=1;jettySize=auto;html=1;fontFamily=Helvetica;fontSize=11;fontColor=default;strokeWidth=2;" edge="1" parent="ETe1gMkkXj5bVFBRiPxY-28" source="ETe1gMkkXj5bVFBRiPxY-30" target="ETe1gMkkXj5bVFBRiPxY-31">
          <mxGeometry relative="1" as="geometry" />
        </mxCell>
        <mxCell id="ETe1gMkkXj5bVFBRiPxY-30" value="Route 53" style="sketch=0;points=[[0,0,0],[0.25,0,0],[0.5,0,0],[0.75,0,0],[1,0,0],[0,1,0],[0.25,1,0],[0.5,1,0],[0.75,1,0],[1,1,0],[0,0.25,0],[0,0.5,0],[0,0.75,0],[1,0.25,0],[1,0.5,0],[1,0.75,0]];outlineConnect=0;fontColor=#232F3E;fillColor=#8C4FFF;strokeColor=#ffffff;dashed=0;verticalLabelPosition=top;verticalAlign=bottom;align=center;html=1;fontSize=18;fontStyle=0;aspect=fixed;shape=mxgraph.aws4.resourceIcon;resIcon=mxgraph.aws4.route_53;labelBackgroundColor=default;fontFamily=Helvetica;labelPosition=center;" vertex="1" parent="ETe1gMkkXj5bVFBRiPxY-28">
          <mxGeometry x="74" y="140" width="108" height="108" as="geometry" />
        </mxCell>
        <mxCell id="ETe1gMkkXj5bVFBRiPxY-37" style="edgeStyle=orthogonalEdgeStyle;rounded=0;orthogonalLoop=1;jettySize=auto;html=1;fontFamily=Helvetica;fontSize=11;fontColor=default;strokeWidth=2;" edge="1" parent="ETe1gMkkXj5bVFBRiPxY-28" source="ETe1gMkkXj5bVFBRiPxY-31" target="ETe1gMkkXj5bVFBRiPxY-36">
          <mxGeometry relative="1" as="geometry" />
        </mxCell>
        <mxCell id="ETe1gMkkXj5bVFBRiPxY-55" style="edgeStyle=orthogonalEdgeStyle;rounded=0;orthogonalLoop=1;jettySize=auto;html=1;exitX=1;exitY=0.75;exitDx=0;exitDy=0;exitPerimeter=0;fontFamily=Helvetica;fontSize=11;fontColor=default;strokeWidth=2;" edge="1" parent="ETe1gMkkXj5bVFBRiPxY-28" source="ETe1gMkkXj5bVFBRiPxY-31" target="ETe1gMkkXj5bVFBRiPxY-38">
          <mxGeometry relative="1" as="geometry">
            <Array as="points">
              <mxPoint x="382" y="473" />
              <mxPoint x="382" y="906" />
            </Array>
          </mxGeometry>
        </mxCell>
        <mxCell id="ETe1gMkkXj5bVFBRiPxY-71" style="edgeStyle=orthogonalEdgeStyle;rounded=0;orthogonalLoop=1;jettySize=auto;html=1;fontFamily=Helvetica;fontSize=11;fontColor=default;strokeWidth=2;" edge="1" parent="ETe1gMkkXj5bVFBRiPxY-28" source="ETe1gMkkXj5bVFBRiPxY-31" target="ETe1gMkkXj5bVFBRiPxY-52">
          <mxGeometry relative="1" as="geometry" />
        </mxCell>
        <mxCell id="ETe1gMkkXj5bVFBRiPxY-31" value="CloudFront" style="sketch=0;points=[[0,0,0],[0.25,0,0],[0.5,0,0],[0.75,0,0],[1,0,0],[0,1,0],[0.25,1,0],[0.5,1,0],[0.75,1,0],[1,1,0],[0,0.25,0],[0,0.5,0],[0,0.75,0],[1,0.25,0],[1,0.5,0],[1,0.75,0]];outlineConnect=0;fontColor=#232F3E;fillColor=#8C4FFF;strokeColor=#ffffff;dashed=0;verticalLabelPosition=bottom;verticalAlign=top;align=center;html=1;fontSize=18;fontStyle=0;aspect=fixed;shape=mxgraph.aws4.resourceIcon;resIcon=mxgraph.aws4.cloudfront;labelBackgroundColor=default;fontFamily=Helvetica;" vertex="1" parent="ETe1gMkkXj5bVFBRiPxY-28">
          <mxGeometry x="72" y="389" width="112" height="112" as="geometry" />
        </mxCell>
        <mxCell id="ETe1gMkkXj5bVFBRiPxY-36" value="WAF&lt;br style=&quot;font-size: 18px;&quot;&gt;" style="sketch=0;points=[[0,0,0],[0.25,0,0],[0.5,0,0],[0.75,0,0],[1,0,0],[0,1,0],[0.25,1,0],[0.5,1,0],[0.75,1,0],[1,1,0],[0,0.25,0],[0,0.5,0],[0,0.75,0],[1,0.25,0],[1,0.5,0],[1,0.75,0]];outlineConnect=0;fontColor=#232F3E;fillColor=#DD344C;strokeColor=#ffffff;dashed=0;verticalLabelPosition=bottom;verticalAlign=top;align=center;html=1;fontSize=18;fontStyle=0;aspect=fixed;shape=mxgraph.aws4.resourceIcon;resIcon=mxgraph.aws4.waf;labelBackgroundColor=default;fontFamily=Helvetica;" vertex="1" parent="ETe1gMkkXj5bVFBRiPxY-28">
          <mxGeometry x="76.5" y="640" width="103" height="103" as="geometry" />
        </mxCell>
        <mxCell id="ETe1gMkkXj5bVFBRiPxY-44" value="Private subnet" style="points=[[0,0],[0.25,0],[0.5,0],[0.75,0],[1,0],[1,0.25],[1,0.5],[1,0.75],[1,1],[0.75,1],[0.5,1],[0.25,1],[0,1],[0,0.75],[0,0.5],[0,0.25]];outlineConnect=0;gradientColor=none;html=1;whiteSpace=wrap;fontSize=18;fontStyle=0;container=1;pointerEvents=0;collapsible=0;recursiveResize=0;shape=mxgraph.aws4.group;grIcon=mxgraph.aws4.group_security_group;grStroke=0;strokeColor=#00A4A6;fillColor=#E6F6F7;verticalAlign=top;align=left;spacingLeft=30;fontColor=#147EBA;dashed=0;labelBackgroundColor=default;fontFamily=Helvetica;" vertex="1" parent="ETe1gMkkXj5bVFBRiPxY-28">
          <mxGeometry x="844" y="148" width="464" height="226" as="geometry" />
        </mxCell>
        <mxCell id="ETe1gMkkXj5bVFBRiPxY-46" value="ECS + Fargate" style="sketch=0;points=[[0,0,0],[0.25,0,0],[0.5,0,0],[0.75,0,0],[1,0,0],[0,1,0],[0.25,1,0],[0.5,1,0],[0.75,1,0],[1,1,0],[0,0.25,0],[0,0.5,0],[0,0.75,0],[1,0.25,0],[1,0.5,0],[1,0.75,0]];outlineConnect=0;fontColor=#232F3E;fillColor=#ED7100;strokeColor=#ffffff;dashed=0;verticalLabelPosition=top;verticalAlign=bottom;align=center;html=1;fontSize=18;fontStyle=0;aspect=fixed;shape=mxgraph.aws4.resourceIcon;resIcon=mxgraph.aws4.fargate;labelBackgroundColor=default;fontFamily=Helvetica;labelPosition=center;" vertex="1" parent="ETe1gMkkXj5bVFBRiPxY-44">
          <mxGeometry x="49" y="79" width="96" height="96" as="geometry" />
        </mxCell>
        <mxCell id="ETe1gMkkXj5bVFBRiPxY-49" value="ECS + Fargate" style="sketch=0;points=[[0,0,0],[0.25,0,0],[0.5,0,0],[0.75,0,0],[1,0,0],[0,1,0],[0.25,1,0],[0.5,1,0],[0.75,1,0],[1,1,0],[0,0.25,0],[0,0.5,0],[0,0.75,0],[1,0.25,0],[1,0.5,0],[1,0.75,0]];outlineConnect=0;fontColor=#232F3E;fillColor=#ED7100;strokeColor=#ffffff;dashed=0;verticalLabelPosition=top;verticalAlign=bottom;align=center;html=1;fontSize=18;fontStyle=0;aspect=fixed;shape=mxgraph.aws4.resourceIcon;resIcon=mxgraph.aws4.fargate;labelBackgroundColor=default;fontFamily=Helvetica;labelPosition=center;" vertex="1" parent="ETe1gMkkXj5bVFBRiPxY-44">
          <mxGeometry x="270" y="79" width="96" height="96" as="geometry" />
        </mxCell>
        <mxCell id="ETe1gMkkXj5bVFBRiPxY-45" value="Private subnet" style="points=[[0,0],[0.25,0],[0.5,0],[0.75,0],[1,0],[1,0.25],[1,0.5],[1,0.75],[1,1],[0.75,1],[0.5,1],[0.25,1],[0,1],[0,0.75],[0,0.5],[0,0.25]];outlineConnect=0;gradientColor=none;html=1;whiteSpace=wrap;fontSize=18;fontStyle=0;container=1;pointerEvents=0;collapsible=0;recursiveResize=0;shape=mxgraph.aws4.group;grIcon=mxgraph.aws4.group_security_group;grStroke=0;strokeColor=#00A4A6;fillColor=#E6F6F7;verticalAlign=top;align=left;spacingLeft=30;fontColor=#147EBA;dashed=0;labelBackgroundColor=default;fontFamily=Helvetica;" vertex="1" parent="ETe1gMkkXj5bVFBRiPxY-28">
          <mxGeometry x="844" y="562" width="464" height="226" as="geometry" />
        </mxCell>
        <mxCell id="ETe1gMkkXj5bVFBRiPxY-48" value="ECS + Fargate" style="sketch=0;points=[[0,0,0],[0.25,0,0],[0.5,0,0],[0.75,0,0],[1,0,0],[0,1,0],[0.25,1,0],[0.5,1,0],[0.75,1,0],[1,1,0],[0,0.25,0],[0,0.5,0],[0,0.75,0],[1,0.25,0],[1,0.5,0],[1,0.75,0]];outlineConnect=0;fontColor=#232F3E;fillColor=#ED7100;strokeColor=#ffffff;dashed=0;verticalLabelPosition=top;verticalAlign=bottom;align=center;html=1;fontSize=18;fontStyle=0;aspect=fixed;shape=mxgraph.aws4.resourceIcon;resIcon=mxgraph.aws4.fargate;labelBackgroundColor=default;fontFamily=Helvetica;labelPosition=center;" vertex="1" parent="ETe1gMkkXj5bVFBRiPxY-45">
          <mxGeometry x="46" y="65" width="96" height="96" as="geometry" />
        </mxCell>
        <mxCell id="ETe1gMkkXj5bVFBRiPxY-47" value="ECS + Fargate" style="sketch=0;points=[[0,0,0],[0.25,0,0],[0.5,0,0],[0.75,0,0],[1,0,0],[0,1,0],[0.25,1,0],[0.5,1,0],[0.75,1,0],[1,1,0],[0,0.25,0],[0,0.5,0],[0,0.75,0],[1,0.25,0],[1,0.5,0],[1,0.75,0]];outlineConnect=0;fontColor=#232F3E;fillColor=#ED7100;strokeColor=#ffffff;dashed=0;verticalLabelPosition=top;verticalAlign=bottom;align=center;html=1;fontSize=18;fontStyle=0;aspect=fixed;shape=mxgraph.aws4.resourceIcon;resIcon=mxgraph.aws4.fargate;labelBackgroundColor=default;fontFamily=Helvetica;labelPosition=center;" vertex="1" parent="ETe1gMkkXj5bVFBRiPxY-45">
          <mxGeometry x="266" y="65" width="96" height="96" as="geometry" />
        </mxCell>
        <mxCell id="ETe1gMkkXj5bVFBRiPxY-81" style="edgeStyle=orthogonalEdgeStyle;rounded=0;orthogonalLoop=1;jettySize=auto;html=1;fontFamily=Helvetica;fontSize=11;fontColor=default;strokeWidth=2;entryX=0;entryY=0.5;entryDx=0;entryDy=0;entryPerimeter=0;" edge="1" parent="ETe1gMkkXj5bVFBRiPxY-28" source="ETe1gMkkXj5bVFBRiPxY-50" target="ETe1gMkkXj5bVFBRiPxY-83">
          <mxGeometry relative="1" as="geometry">
            <mxPoint x="1602" y="465.5" as="targetPoint" />
          </mxGeometry>
        </mxCell>
        <mxCell id="ETe1gMkkXj5bVFBRiPxY-91" value="&lt;font style=&quot;font-size: 18px;&quot;&gt;ECS Posta&lt;br&gt;no&lt;br&gt;TÃ³pico&lt;br&gt;&lt;/font&gt;" style="edgeLabel;html=1;align=center;verticalAlign=middle;resizable=0;points=[];fontSize=11;fontFamily=Helvetica;fontColor=default;" vertex="1" connectable="0" parent="ETe1gMkkXj5bVFBRiPxY-81">
          <mxGeometry x="-0.0228" relative="1" as="geometry">
            <mxPoint x="-1" as="offset" />
          </mxGeometry>
        </mxCell>
        <mxCell id="ETe1gMkkXj5bVFBRiPxY-50" value="DynamoDB" style="sketch=0;points=[[0,0,0],[0.25,0,0],[0.5,0,0],[0.75,0,0],[1,0,0],[0,1,0],[0.25,1,0],[0.5,1,0],[0.75,1,0],[1,1,0],[0,0.25,0],[0,0.5,0],[0,0.75,0],[1,0.25,0],[1,0.5,0],[1,0.75,0]];outlineConnect=0;fontColor=#232F3E;fillColor=#C925D1;strokeColor=#ffffff;dashed=0;verticalLabelPosition=bottom;verticalAlign=top;align=center;html=1;fontSize=18;fontStyle=0;aspect=fixed;shape=mxgraph.aws4.resourceIcon;resIcon=mxgraph.aws4.dynamodb;labelBackgroundColor=default;fontFamily=Helvetica;" vertex="1" parent="ETe1gMkkXj5bVFBRiPxY-28">
          <mxGeometry x="1430" y="413" width="105" height="105" as="geometry" />
        </mxCell>
        <mxCell id="ETe1gMkkXj5bVFBRiPxY-56" style="edgeStyle=orthogonalEdgeStyle;rounded=0;orthogonalLoop=1;jettySize=auto;html=1;fontFamily=Helvetica;fontSize=11;fontColor=default;strokeWidth=2;" edge="1" parent="ETe1gMkkXj5bVFBRiPxY-28" source="ETe1gMkkXj5bVFBRiPxY-52" target="ETe1gMkkXj5bVFBRiPxY-46">
          <mxGeometry relative="1" as="geometry">
            <Array as="points">
              <mxPoint x="941" y="436" />
            </Array>
          </mxGeometry>
        </mxCell>
        <mxCell id="ETe1gMkkXj5bVFBRiPxY-58" style="edgeStyle=orthogonalEdgeStyle;rounded=0;orthogonalLoop=1;jettySize=auto;html=1;fontFamily=Helvetica;fontSize=11;fontColor=default;strokeWidth=2;" edge="1" parent="ETe1gMkkXj5bVFBRiPxY-28" source="ETe1gMkkXj5bVFBRiPxY-52">
          <mxGeometry relative="1" as="geometry">
            <mxPoint x="726" y="469.9966666666666" as="sourcePoint" />
            <mxPoint x="1160" y="600" as="targetPoint" />
            <Array as="points">
              <mxPoint x="1160" y="470" />
            </Array>
          </mxGeometry>
        </mxCell>
        <mxCell id="ETe1gMkkXj5bVFBRiPxY-57" style="edgeStyle=orthogonalEdgeStyle;rounded=0;orthogonalLoop=1;jettySize=auto;html=1;entryX=0.5;entryY=1;entryDx=0;entryDy=0;entryPerimeter=0;fontFamily=Helvetica;fontSize=11;fontColor=default;strokeWidth=2;" edge="1" parent="ETe1gMkkXj5bVFBRiPxY-28" source="ETe1gMkkXj5bVFBRiPxY-52" target="ETe1gMkkXj5bVFBRiPxY-49">
          <mxGeometry relative="1" as="geometry">
            <Array as="points">
              <mxPoint x="1162" y="455" />
            </Array>
          </mxGeometry>
        </mxCell>
        <mxCell id="ETe1gMkkXj5bVFBRiPxY-60" style="edgeStyle=orthogonalEdgeStyle;rounded=0;orthogonalLoop=1;jettySize=auto;html=1;entryX=0;entryY=0.25;entryDx=0;entryDy=0;entryPerimeter=0;fontFamily=Helvetica;fontSize=11;fontColor=default;strokeWidth=2;" edge="1" parent="ETe1gMkkXj5bVFBRiPxY-28" source="ETe1gMkkXj5bVFBRiPxY-46" target="ETe1gMkkXj5bVFBRiPxY-50">
          <mxGeometry relative="1" as="geometry">
            <Array as="points">
              <mxPoint x="1037" y="275" />
              <mxPoint x="1037" y="185" />
              <mxPoint x="1388" y="185" />
              <mxPoint x="1388" y="439" />
            </Array>
          </mxGeometry>
        </mxCell>
        <mxCell id="ETe1gMkkXj5bVFBRiPxY-75" value="&lt;font style=&quot;font-size: 18px;&quot;&gt;SALVA&lt;/font&gt;" style="edgeLabel;html=1;align=center;verticalAlign=middle;resizable=0;points=[];fontSize=11;fontFamily=Helvetica;fontColor=default;" vertex="1" connectable="0" parent="ETe1gMkkXj5bVFBRiPxY-60">
          <mxGeometry x="-0.141" y="-1" relative="1" as="geometry">
            <mxPoint as="offset" />
          </mxGeometry>
        </mxCell>
        <mxCell id="ETe1gMkkXj5bVFBRiPxY-61" style="edgeStyle=orthogonalEdgeStyle;rounded=0;orthogonalLoop=1;jettySize=auto;html=1;entryX=0;entryY=0.5;entryDx=0;entryDy=0;entryPerimeter=0;fontFamily=Helvetica;fontSize=18;fontColor=default;strokeWidth=2;" edge="1" parent="ETe1gMkkXj5bVFBRiPxY-28" source="ETe1gMkkXj5bVFBRiPxY-49" target="ETe1gMkkXj5bVFBRiPxY-50">
          <mxGeometry relative="1" as="geometry">
            <Array as="points">
              <mxPoint x="1363" y="275" />
              <mxPoint x="1363" y="465" />
            </Array>
          </mxGeometry>
        </mxCell>
        <mxCell id="ETe1gMkkXj5bVFBRiPxY-72" value="&lt;font style=&quot;font-size: 18px;&quot;&gt;SALVA&lt;/font&gt;" style="edgeLabel;html=1;align=center;verticalAlign=middle;resizable=0;points=[];fontSize=11;fontFamily=Helvetica;fontColor=default;" vertex="1" connectable="0" parent="ETe1gMkkXj5bVFBRiPxY-61">
          <mxGeometry x="-0.6186" y="1" relative="1" as="geometry">
            <mxPoint as="offset" />
          </mxGeometry>
        </mxCell>
        <mxCell id="ETe1gMkkXj5bVFBRiPxY-62" style="edgeStyle=orthogonalEdgeStyle;rounded=0;orthogonalLoop=1;jettySize=auto;html=1;fontFamily=Helvetica;fontSize=11;fontColor=default;strokeWidth=2;" edge="1" parent="ETe1gMkkXj5bVFBRiPxY-28" source="ETe1gMkkXj5bVFBRiPxY-47" target="ETe1gMkkXj5bVFBRiPxY-50">
          <mxGeometry relative="1" as="geometry">
            <Array as="points">
              <mxPoint x="1365" y="675" />
              <mxPoint x="1365" y="482" />
            </Array>
          </mxGeometry>
        </mxCell>
        <mxCell id="ETe1gMkkXj5bVFBRiPxY-76" value="&lt;span style=&quot;font-size: 18px;&quot;&gt;SALVA&lt;/span&gt;" style="edgeLabel;html=1;align=center;verticalAlign=middle;resizable=0;points=[];fontSize=11;fontFamily=Helvetica;fontColor=default;" vertex="1" connectable="0" parent="ETe1gMkkXj5bVFBRiPxY-62">
          <mxGeometry x="-0.6247" y="1" relative="1" as="geometry">
            <mxPoint as="offset" />
          </mxGeometry>
        </mxCell>
        <mxCell id="ETe1gMkkXj5bVFBRiPxY-65" style="edgeStyle=orthogonalEdgeStyle;rounded=0;orthogonalLoop=1;jettySize=auto;html=1;fontFamily=Helvetica;fontSize=11;fontColor=default;strokeWidth=2;" edge="1" parent="ETe1gMkkXj5bVFBRiPxY-28" source="ETe1gMkkXj5bVFBRiPxY-48" target="ETe1gMkkXj5bVFBRiPxY-50">
          <mxGeometry relative="1" as="geometry">
            <Array as="points">
              <mxPoint x="1030" y="675" />
              <mxPoint x="1030" y="765" />
              <mxPoint x="1391" y="765" />
              <mxPoint x="1391" y="501" />
            </Array>
          </mxGeometry>
        </mxCell>
        <mxCell id="ETe1gMkkXj5bVFBRiPxY-79" value="&lt;font style=&quot;font-size: 18px;&quot;&gt;SALVA&lt;/font&gt;" style="edgeLabel;html=1;align=center;verticalAlign=middle;resizable=0;points=[];fontSize=11;fontFamily=Helvetica;fontColor=default;" vertex="1" connectable="0" parent="ETe1gMkkXj5bVFBRiPxY-65">
          <mxGeometry x="-0.0369" y="-2" relative="1" as="geometry">
            <mxPoint as="offset" />
          </mxGeometry>
        </mxCell>
        <mxCell id="ETe1gMkkXj5bVFBRiPxY-70" style="edgeStyle=orthogonalEdgeStyle;rounded=0;orthogonalLoop=1;jettySize=auto;html=1;entryX=0.25;entryY=0;entryDx=0;entryDy=0;fontFamily=Helvetica;fontSize=11;fontColor=default;strokeWidth=2;" edge="1" parent="ETe1gMkkXj5bVFBRiPxY-28" source="ETe1gMkkXj5bVFBRiPxY-52" target="ETe1gMkkXj5bVFBRiPxY-45">
          <mxGeometry relative="1" as="geometry">
            <Array as="points">
              <mxPoint x="960" y="486" />
            </Array>
          </mxGeometry>
        </mxCell>
      </root>
    </mxGraphModel>
  </diagram>
</mxfile>
